<?xml version="1.0" encoding="utf-8"?>
<!-- Generator: Adobe Illustrator 23.0.2, SVG Export Plug-In . SVG Version: 6.00 Build 0)  -->
<svg version="1.1" id="Layer_1" xmlns="http://www.w3.org/2000/svg" xmlns:xlink="http://www.w3.org/1999/xlink" x="0px" y="0px"
	 viewBox="0 0 1920 1080" xml:space="preserve">
<g>
	<path d="M492.39,700.61c0-0.63,0.56-1.19,1.19-1.19h7.47c0.69,0,1.19,0.56,1.19,1.19v15.81h17.94v-15.81c0-0.63,0.5-1.19,1.19-1.19
		h7.47c0.63,0,1.19,0.56,1.19,1.19v41.53c0,0.63-0.56,1.19-1.19,1.19h-7.47c-0.69,0-1.19-0.56-1.19-1.19v-16.5h-17.94v16.5
		c0,0.63-0.5,1.19-1.19,1.19h-7.47c-0.63,0-1.19-0.56-1.19-1.19V700.61z"/>
	<path d="M542.39,700.61c0-0.63,0.5-1.19,1.19-1.19h25.98c0.69,0,1.19,0.56,1.19,1.19v6.84c0,0.63-0.5,1.19-1.19,1.19h-17.38v7.78
		h14.31c0.63,0,1.19,0.56,1.19,1.19v6.84c0,0.69-0.56,1.19-1.19,1.19h-14.31v8.47h17.38c0.69,0,1.19,0.56,1.19,1.19v6.84
		c0,0.63-0.5,1.19-1.19,1.19h-25.98c-0.69,0-1.19-0.56-1.19-1.19V700.61z"/>
	<path d="M575.09,741.71l19.64-42.22c0.19-0.38,0.63-0.69,1.07-0.69h0.63c0.44,0,0.88,0.31,1.07,0.69l19.64,42.22
		c0.38,0.82-0.13,1.63-1.07,1.63h-6.96c-1.13,0-1.63-0.38-2.2-1.57l-2.26-4.96h-17.07l-2.26,5.02c-0.31,0.75-1,1.51-2.26,1.51h-6.9
		C575.21,743.34,574.71,742.52,575.09,741.71z M600.87,728.28l-4.77-10.35h-0.06l-4.71,10.35H600.87z"/>
	<path d="M627.23,708.64h-8.97c-0.69,0-1.19-0.56-1.19-1.19v-6.84c0-0.63,0.5-1.19,1.19-1.19h27.86c0.69,0,1.19,0.56,1.19,1.19v6.84
		c0,0.63-0.5,1.19-1.19,1.19h-8.97v33.5c0,0.63-0.56,1.19-1.19,1.19h-7.53c-0.63,0-1.19-0.56-1.19-1.19V708.64z"/>
	<path d="M655.15,700.61c0-0.63,0.56-1.19,1.19-1.19h7.53c0.63,0,1.19,0.56,1.19,1.19v41.53c0,0.63-0.56,1.19-1.19,1.19h-7.53
		c-0.63,0-1.19-0.56-1.19-1.19V700.61z"/>
	<path d="M677.36,699.92c0-0.63,0.56-1.13,1.19-1.13h1.57l25.03,24.09h0.06v-22.27c0-0.63,0.5-1.19,1.19-1.19h7.53
		c0.63,0,1.19,0.56,1.19,1.19v42.22c0,0.63-0.56,1.13-1.19,1.13h-1c-0.19,0-0.69-0.19-0.82-0.31l-24.78-24.91h-0.06v23.4
		c0,0.63-0.5,1.19-1.19,1.19h-7.47c-0.63,0-1.19-0.56-1.19-1.19L677.36,699.92z"/>
	<path d="M746.88,698.86c5.27,0,11.04,2.2,15.31,5.9c0.56,0.44,0.63,1.19,0.12,1.69l-4.96,5.27c-0.5,0.44-1.19,0.44-1.69,0.06
		c-2.38-2.2-5.14-3.01-8.22-3.01c-6.84,0-12.36,5.77-12.36,12.67c0,6.84,5.58,12.48,12.42,12.48c1.82,0,3.7-0.25,5.58-1v-3.64h-3.95
		c-0.69,0-1.19-0.5-1.19-1.13v-6.21c0-0.69,0.5-1.19,1.19-1.19h12.61c0.63,0,1.13,0.56,1.13,1.19l0.06,16.88c0,0.31-0.25,0.82-0.5,1
		c0,0-6.46,4.08-15.56,4.08c-12.48,0-22.52-9.91-22.52-22.46S734.4,698.86,746.88,698.86z"/>
	<path d="M796.14,719.43v-0.19l-1.25-1.32c-2.51-2.64-4.14-5.33-4.14-8.97c0-4.77,4.14-10.16,12.17-10.16
		c7.15,0,12.55,4.64,12.55,10.48c0,6.9-6.84,10.6-6.84,11.11l5.65,5.77c0.82-1.32,1.63-3.33,2.07-4.83
		c0.38-1.32,0.75-2.32,2.45-1.69l4.58,1.63c1.76,0.63,1.07,2.13,0.82,2.89c-1.51,4.39-3.95,7.72-3.95,7.84l5.33,4.96
		c0.82,0.75,1.44,1.32-0.13,2.89l-3.51,3.58c-0.75,0.69-1.82,0.82-2.82-0.19l-4.08-4.08c0,0-4.27,4.83-13.68,4.83
		c-8.03,0-13.8-5.39-13.8-11.92C787.55,723.01,796.14,719.43,796.14,719.43z M802.42,736.13c4.89,0,6.78-3.2,6.78-3.2l-8.22-8.72
		c0,0-4.45,1.5-4.45,6.59C796.52,733.8,799.09,736.13,802.42,736.13z M807.44,709.84c0-2.13-1.95-4.02-4.64-4.02
		c-2.32,0-3.7,1.44-3.7,3.07c0,1.88,1.25,3.07,2.89,4.89l1.38,1.38C803.36,715.17,807.44,713.35,807.44,709.84z"/>
	<path d="M849.41,700.61c0-0.63,0.5-1.19,1.19-1.19h15.12c7.72,0,14.05,6.27,14.05,13.87c0,7.78-6.34,14.12-13.99,14.12h-6.59v14.74
		c0,0.63-0.56,1.19-1.19,1.19h-7.4c-0.69,0-1.19-0.56-1.19-1.19V700.61z M865.16,718.24c2.7,0,4.96-2.13,4.96-4.96
		c0-2.63-2.26-4.64-4.96-4.64h-5.96v9.6H865.16z"/>
	<path d="M887.75,700.61c0-0.63,0.5-1.19,1.19-1.19h7.47c0.63,0,1.19,0.56,1.19,1.19v33.5h14.93c0.69,0,1.19,0.56,1.19,1.19v6.84
		c0,0.63-0.5,1.19-1.19,1.19h-23.59c-0.69,0-1.19-0.56-1.19-1.19V700.61z"/>
	<path d="M920.26,700.61c0-0.63,0.56-1.19,1.19-1.19h7.72c0.69,0,1.19,0.56,1.19,1.19v25.41c0,4.39,3.26,7.9,7.72,7.9
		c4.52,0,7.84-3.51,7.84-7.9v-25.41c0-0.63,0.5-1.19,1.19-1.19h7.72c0.63,0,1.19,0.56,1.19,1.19v25.91
		c0,9.54-8.03,17.44-17.94,17.44c-9.85,0-17.82-7.91-17.82-17.44V700.61z"/>
	<path d="M972.02,699.8c0.06-0.56,0.63-1,1.13-1h1c0.31,0,0.88,0.25,1.07,0.63l14.56,27.1h0.12l14.56-27.1
		c0.19-0.38,0.75-0.63,1.07-0.63h1c0.5,0,1.07,0.44,1.13,1l7.09,42.16c0.12,0.82-0.44,1.38-1.19,1.38h-7.4c-0.56,0-1.13-0.5-1.19-1
		l-2.82-19.39h-0.13l-10.54,20.33c-0.19,0.38-0.75,0.69-1.07,0.69h-1.13c-0.38,0-0.88-0.31-1.07-0.69l-10.6-20.33h-0.12l-2.76,19.39
		c-0.06,0.5-0.56,1-1.19,1h-7.4c-0.75,0-1.32-0.56-1.19-1.38L972.02,699.8z"/>
	<path d="M1024.35,700.61c0-0.63,0.5-1.19,1.19-1.19h14.62c7.4,0,13.49,5.08,13.49,11.67c0,4.83-4.33,8.34-7.28,9.91
		c3.32,1.38,8.41,4.46,8.41,10.23c0,7.03-6.21,12.11-13.68,12.11h-15.56c-0.69,0-1.19-0.56-1.19-1.19V700.61z M1039.03,717.24
		c2.38,0,4.39-2.01,4.39-4.52s-2.01-4.27-4.39-4.27h-4.89v8.78H1039.03z M1039.85,734.37c2.45,0,4.52-2.01,4.52-4.58
		c0-2.51-2.7-4.39-5.14-4.39h-5.08v8.97H1039.85z"/>
	<path d="M1064.32,700.61c0-0.63,0.56-1.19,1.19-1.19h7.53c0.63,0,1.19,0.56,1.19,1.19v41.53c0,0.63-0.56,1.19-1.19,1.19h-7.53
		c-0.63,0-1.19-0.56-1.19-1.19V700.61z"/>
	<path d="M1086.53,699.92c0-0.63,0.56-1.13,1.19-1.13h1.57l25.03,24.09h0.06v-22.27c0-0.63,0.5-1.19,1.19-1.19h7.53
		c0.63,0,1.19,0.56,1.19,1.19v42.22c0,0.63-0.56,1.13-1.19,1.13h-1c-0.19,0-0.69-0.19-0.82-0.31l-24.78-24.91h-0.06v23.4
		c0,0.63-0.5,1.19-1.19,1.19h-7.47c-0.63,0-1.19-0.56-1.19-1.19L1086.53,699.92z"/>
	<path d="M1156.06,698.86c5.27,0,11.04,2.2,15.31,5.9c0.56,0.44,0.63,1.19,0.12,1.69l-4.96,5.27c-0.5,0.44-1.19,0.44-1.69,0.06
		c-2.38-2.2-5.14-3.01-8.22-3.01c-6.84,0-12.36,5.77-12.36,12.67c0,6.84,5.58,12.48,12.42,12.48c1.82,0,3.7-0.25,5.58-1v-3.64h-3.95
		c-0.69,0-1.19-0.5-1.19-1.13v-6.21c0-0.69,0.5-1.19,1.19-1.19h12.61c0.63,0,1.13,0.56,1.13,1.19l0.06,16.88c0,0.31-0.25,0.82-0.5,1
		c0,0-6.46,4.08-15.56,4.08c-12.48,0-22.52-9.91-22.52-22.46S1143.57,698.86,1156.06,698.86z"/>
	<path d="M1197.72,700.61c0-0.63,0.5-1.19,1.19-1.19h7.47c0.63,0,1.19,0.56,1.19,1.19v33.5h14.93c0.69,0,1.19,0.56,1.19,1.19v6.84
		c0,0.63-0.5,1.19-1.19,1.19h-23.59c-0.69,0-1.19-0.56-1.19-1.19V700.61z"/>
	<path d="M1234.62,708.64h-8.97c-0.69,0-1.19-0.56-1.19-1.19v-6.84c0-0.63,0.5-1.19,1.19-1.19h27.86c0.69,0,1.19,0.56,1.19,1.19
		v6.84c0,0.63-0.5,1.19-1.19,1.19h-8.97v33.5c0,0.63-0.56,1.19-1.19,1.19h-7.53c-0.63,0-1.19-0.56-1.19-1.19V708.64z"/>
	<path d="M1262.54,700.61c0-0.63,0.5-1.19,1.13-1.19h15.31c12.11,0,22.02,9.85,22.02,21.9c0,12.17-9.91,22.02-22.02,22.02h-15.31
		c-0.63,0-1.13-0.56-1.13-1.19V700.61z M1278.35,734.05c7.09,0,12.23-5.58,12.23-12.74c0-7.09-5.14-12.67-12.23-12.67h-6.02v25.41
		H1278.35z"/>
</g>
<g>
	<g id="XMLID_38_">
		<path id="XMLID_1_" class="st0" d="M559.29,414.29l-1.1-34.89c-0.45-14.12-11.77-25.46-25.88-25.94l0,0l-0.02,89.81
			c0,12.06,9.55,0.38,21.6,0.79L559.29,414.29z"/>
		<path id="XMLID_150_" class="st0" d="M655.98,347.2c-14.85-14.35-38.46-14.15-53.06,0.45L495.28,455.28V623.2
			c20.62,0.44,23.58,0.12,47.06,0l0.51-141.63l123.93-123.93L655.98,347.2z"/>
		<path id="XMLID_92_" class="st1" d="M572.96,377.6c24.99-13.97,60.96,10.71,60.96,10.71l44.42,38.96
			c17.97,15.76,45.09,14.87,61.99-2.03l0,0l-84.37-78.91c-14.9-13.94-38.18-13.55-52.61,0.88L572.96,377.6z"/>
	</g>
	<path class="st0" d="M629.78,510.47h-30.75c-1.65,0-3-1.35-3-3v-27.85c0-1.65,1.35-3,3-3h30.75c1.65,0,3,1.35,3,3v27.85
		C632.78,509.12,631.43,510.47,629.78,510.47z"/>
	<path class="st1" d="M670.82,510.47h-30.75c-1.65,0-3-1.35-3-3v-27.85c0-1.65,1.35-3,3-3h30.75c1.65,0,3,1.35,3,3v27.85
		C673.82,509.12,672.47,510.47,670.82,510.47z"/>
	<path class="st0" d="M629.78,548.35h-30.75c-1.65,0-3-1.35-3-3V517.5c0-1.65,1.35-3,3-3h30.75c1.65,0,3,1.35,3,3v27.85
		C632.78,547,631.43,548.35,629.78,548.35z"/>
	<path class="st1" d="M670.82,548.35h-30.75c-1.65,0-3-1.35-3-3V517.5c0-1.65,1.35-3,3-3h30.75c1.65,0,3,1.35,3,3v27.85
		C673.82,547,672.47,548.35,670.82,548.35z"/>
</g>
<g>
	<path class="st0" d="M703.66,512.45c0-8.98,1.71-17.41,5.15-25.28c3.43-7.87,8.1-14.76,14-20.66c5.9-5.9,12.79-10.57,20.66-14
		c7.87-3.43,16.3-5.15,25.28-5.15h99.6v43.44h-99.6c-3.03,0-5.85,0.56-8.48,1.66c-2.63,1.11-4.92,2.65-6.89,4.62
		c-1.97,1.97-3.51,4.26-4.62,6.89c-1.11,2.63-1.66,5.45-1.66,8.48c0,3.03,0.55,5.88,1.66,8.55c1.11,2.67,2.65,4.99,4.62,6.96
		c1.97,1.97,4.26,3.51,6.89,4.62c2.62,1.11,5.45,1.66,8.48,1.66h43.44c8.98,0,17.43,1.69,25.35,5.07
		c7.92,3.38,14.83,8.02,20.74,13.93s10.54,12.82,13.93,20.74c3.38,7.92,5.07,16.37,5.07,25.35c0,8.98-1.69,17.41-5.07,25.28
		c-3.38,7.87-8.02,14.76-13.93,20.66c-5.9,5.9-12.82,10.57-20.74,14c-7.92,3.43-16.37,5.15-25.35,5.15H495.28v-43.44h316.91
		c3.03,0,5.85-0.55,8.48-1.66c2.62-1.11,4.92-2.65,6.89-4.62c1.97-1.97,3.51-4.26,4.62-6.89c1.11-2.62,1.66-5.45,1.66-8.48
		s-0.56-5.85-1.66-8.48c-1.11-2.62-2.65-4.92-4.62-6.89c-1.97-1.97-4.26-3.51-6.89-4.62c-2.63-1.11-5.45-1.66-8.48-1.66h-43.44
		c-8.98,0-17.41-1.71-25.28-5.15c-7.87-3.43-14.76-8.1-20.66-14s-10.57-12.81-14-20.74C705.38,529.89,703.66,521.44,703.66,512.45z"
		/>
	<path class="st0" d="M948.9,664.42h-41.32V502.31h9.99l13.62,15.74c6.66-6.05,14.2-10.72,22.63-14c8.42-3.28,17.23-4.92,26.41-4.92
		c9.89,0,19.22,1.89,28,5.68c8.78,3.78,16.45,8.98,23.01,15.59c6.56,6.61,11.73,14.33,15.51,23.16c3.78,8.83,5.68,18.24,5.68,28.23
		v92.63h-41.32v-92.63c0-4.24-0.81-8.25-2.42-12.03c-1.62-3.78-3.84-7.09-6.66-9.91c-2.83-2.82-6.11-5.04-9.84-6.66
		c-3.73-1.61-7.72-2.42-11.96-2.42c-4.34,0-8.43,0.81-12.26,2.42c-3.84,1.62-7.17,3.84-9.99,6.66c-2.83,2.83-5.05,6.13-6.66,9.91
		c-1.62,3.78-2.42,7.8-2.42,12.03V664.42z"/>
	<path class="st0" d="M1207.45,645.5c-3.33,3.03-6.89,5.88-10.67,8.55c-3.78,2.67-7.75,4.99-11.88,6.96
		c-4.14,1.97-8.4,3.53-12.79,4.69c-4.39,1.16-8.85,1.74-13.4,1.74c-9.99,0-19.37-1.77-28.15-5.3s-16.47-8.55-23.08-15.06
		c-6.61-6.51-11.81-14.43-15.59-23.76c-3.78-9.33-5.68-19.8-5.68-31.41v-89.61h41.17v89.61c0,5.45,0.83,10.32,2.5,14.61
		c1.66,4.29,3.91,7.9,6.74,10.82c2.82,2.93,6.13,5.15,9.91,6.66s7.84,2.27,12.18,2.27c4.24,0,8.25-0.98,12.03-2.95
		c3.78-1.97,7.09-4.56,9.91-7.8c2.82-3.23,5.04-6.89,6.66-10.97c1.61-4.09,2.42-8.3,2.42-12.64v-89.61h41.32v162.11h-9.99
		L1207.45,645.5z"/>
	<path class="st0" d="M1427.26,643.99c0,11.4-2.17,22.1-6.51,32.09c-4.34,9.99-10.27,18.72-17.78,26.19
		c-7.52,7.47-16.3,13.37-26.34,17.71c-10.04,4.34-20.76,6.51-32.16,6.51l-20.74-0.3v-41.32l20.43,0.3c6.46,0,11.96-0.83,16.5-2.5
		c4.54-1.66,8.37-3.94,11.5-6.81c3.13-2.88,5.62-6.18,7.49-9.91c1.87-3.73,3.35-7.67,4.47-11.81c-1.62,2.63-3.94,4.77-6.96,6.43
		s-6.38,3.03-10.07,4.09c-3.68,1.06-7.52,1.79-11.5,2.19c-3.99,0.4-7.7,0.61-11.13,0.61c-11.4,0-22.12-1.97-32.16-5.9
		c-10.04-3.94-18.82-9.56-26.34-16.88c-7.52-7.32-13.45-16.27-17.78-26.87c-4.34-10.6-6.51-22.55-6.51-35.87
		c0-12.21,2.17-23.56,6.51-34.06c4.34-10.49,10.27-19.58,17.78-27.24c7.52-7.67,16.3-13.67,26.34-18.01
		c10.04-4.34,20.76-6.51,32.16-6.51c5.25,0,10.44,0.66,15.59,1.97c5.15,1.31,10.14,3.13,14.98,5.45c4.84,2.32,9.46,5.05,13.85,8.17
		c4.39,3.13,8.5,6.51,12.34,10.14l16.04-19.22h9.99V643.99z M1385.64,581.93c0-5.65-1.09-11.13-3.25-16.42
		c-2.17-5.3-5.12-9.99-8.85-14.08c-3.73-4.09-8.1-7.36-13.09-9.84c-4.99-2.47-10.32-3.71-15.97-3.71c-5.65,0-10.97,0.96-15.97,2.88
		c-4.99,1.92-9.33,4.74-13.02,8.48c-3.68,3.73-6.58,8.35-8.7,13.85c-2.12,5.5-3.18,11.78-3.18,18.84c0,6.76,1.06,12.84,3.18,18.24
		c2.12,5.4,5.02,10.02,8.7,13.85c3.68,3.84,8.02,6.79,13.02,8.85c4.99,2.07,10.32,3.1,15.97,3.1c5.65,0,10.97-1.23,15.97-3.71
		c4.99-2.47,9.36-5.75,13.09-9.84c3.73-4.09,6.68-8.78,8.85-14.08C1384.55,593.05,1385.64,587.58,1385.64,581.93z"/>
</g>
</svg>
