<svg width="685" height="161" viewBox="0 0 685 161" fill="none" xmlns="http://www.w3.org/2000/svg">
<path d="M264.661 52.0014C263.615 52.4414 263.14 53.6574 263.58 54.7067C263.681 54.908 272.029 73.632 297.681 77.5507C300.688 78.0254 303.967 78.296 307.481 78.296C309.171 78.296 310.929 78.2614 312.72 78.1267C313.868 78.0254 314.713 77.044 314.647 75.9294C314.58 74.7814 313.464 73.9347 312.449 74.004C308.089 74.3067 304.103 74.2054 300.519 73.8014H300.485C300.452 73.8014 300.385 73.8014 300.349 73.7667H300.183C285.817 72.1454 277.201 65.7227 272.435 60.4507C268.819 56.8347 266.791 53.5227 265.913 51.9014C265.751 51.8467 265.583 51.8187 265.413 51.8187C265.161 51.8201 264.905 51.88 264.661 52.0014" fill="url(#paint0_linear)"/>
<path d="M254.084 43.8227C252.969 43.9587 252.191 44.9721 252.325 46.0867C252.428 46.7641 254.456 62.1067 267.805 73.4627C275.476 80.0187 282.303 81.4054 286.663 81.4054C291.056 81.4054 294.976 80.0187 297.681 77.5507C298.627 76.7067 299.439 75.7267 300.081 74.6454C300.216 74.4081 300.284 74.172 300.316 73.9347C300.316 73.9347 300.316 73.8681 300.349 73.7667H300.183C295.856 73.1587 292.003 72.1107 288.591 70.8267C288.32 70.724 288.013 70.6227 287.745 70.4894C280.917 67.7507 275.917 63.9654 272.435 60.4507C268.819 56.8347 266.791 53.5227 265.913 51.9014C265.54 51.224 265.372 50.8534 265.337 50.8187C264.899 49.7707 265.405 48.5547 266.42 48.1147C267.468 47.6761 268.684 48.1481 269.157 49.1974C269.393 49.7374 272.807 57.2414 282.135 63.1547C281.425 60.2147 281.864 57.3747 282.541 55.6174C282.945 54.5707 284.128 54.0294 285.176 54.4347C286.257 54.8414 286.799 56.0241 286.393 57.0707C286.292 57.3747 285.885 58.592 285.885 60.1814C285.885 62.2747 286.631 65.0467 289.873 66.9734C292.951 68.1574 296.463 69.1027 300.42 69.6441C300.113 63.6961 297.613 53.0827 284.805 47.2361C278.763 44.4774 271.6 43.0734 263.949 43.0734C260.732 43.0734 257.427 43.3227 254.084 43.8227" fill="url(#paint1_linear)"/>
<path d="M75.7132 86.8503L9.47724 2.21429L8.96924 1.56762H0.175903V106.825H10.9892V21.5316L77.8946 106.825H86.5252V1.56762H75.7132V86.8503Z" fill="#414042"/>
<path d="M210.935 1.5675V61.6288C210.935 85.3195 200.295 97.3288 179.314 97.3288C158.22 97.3288 147.527 85.3195 147.527 61.6288V1.5675H136.682V61.9222C136.682 90.9395 152.162 107.581 179.148 107.581C206.222 107.581 221.747 90.9395 221.747 61.9222V1.5675H210.935Z" fill="#414042"/>
<path d="M23.1681 130.355V143.132H6.10142V130.355H1.85742V160.073H6.10142V146.828H23.1681V160.073H27.4161V130.355H23.1681Z" fill="url(#paint2_linear)"/>
<path d="M47.3948 130.355V160.073H68.9628V156.383H51.6388V146.787H66.5401V143.177H51.6388V134.047H68.3654V130.355H47.3948Z" fill="url(#paint3_linear)"/>
<path d="M95.8574 130.355L82.3987 160.073H86.772L90.04 152.644H105.833L109.103 160.073H113.561L100.059 130.355H95.8574ZM97.9387 134.687L104.348 149.247H91.5267L97.9387 134.687Z" fill="url(#paint4_linear)"/>
<path d="M123.265 130.355V134.047H133.453V160.073H137.655V134.047H147.848V130.355H123.265Z" fill="url(#paint5_linear)"/>
<path d="M163.533 160.073H167.777V130.355H163.533V160.073Z" fill="url(#paint6_linear)"/>
<path d="M209.057 130.355V152.516L191.228 130.355H187.748V160.073H191.991V137.913L209.821 160.073H213.305V130.355H209.057Z" fill="url(#paint7_linear)"/>
<path d="M230.861 145.215C230.861 154 237.569 160.415 246.7 160.415C250.861 160.415 254.977 159.141 257.951 156.636V145.045H253.873V154.723C251.753 156.084 249.417 156.636 246.912 156.636C240.075 156.636 235.109 151.753 235.109 145.215C235.109 138.591 240.075 133.793 246.953 133.793C250.309 133.793 253.109 134.856 255.575 137.233L258.204 134.599C255.487 131.587 251.496 130.015 246.783 130.015C237.569 130.015 230.861 136.424 230.861 145.215" fill="url(#paint8_linear)"/>
<path d="M306.176 137.192C306.176 138.337 306.646 139.188 308.471 140.97C311.399 139.398 312.332 138.296 312.332 136.934C312.332 135.49 311.312 134.474 309.404 134.474C307.367 134.474 306.176 135.62 306.176 137.192ZM314.03 153.665L306.856 146.957C304.139 148.525 303.16 149.886 303.16 151.712C303.16 153.877 305.202 155.404 308.471 155.404C310.507 155.404 312.415 154.81 314.03 153.665ZM321.504 160.585L317.938 157.274C315.22 159.394 311.822 160.585 308.002 160.585C301.464 160.585 296.664 157.186 296.664 152.433C296.664 148.696 298.659 146.106 303.206 143.56C301.04 141.306 300.148 139.398 300.148 137.274C300.148 132.944 303.799 129.973 309.404 129.973C314.539 129.973 317.938 132.604 317.938 136.81C317.938 139.864 316.154 142.116 312.12 144.322L317.555 149.376C318.19 148.061 318.7 146.488 319.04 144.746L324.347 146.405C323.795 148.953 322.903 151.242 321.63 153.154L325.11 156.382L321.504 160.585Z" fill="#414042"/>
<path d="M364.037 160.073H368.281V130.355H364.037V160.073Z" fill="url(#paint9_linear)"/>
<path d="M409.563 130.355V152.516L391.732 130.355H388.252V160.073H392.496V137.913L410.327 160.073H413.809V130.355H409.563Z" fill="url(#paint10_linear)"/>
<path d="M429.5 130.355V134.047H439.688V160.073H443.891V134.047H454.083V130.355H429.5Z" fill="url(#paint11_linear)"/>
<path d="M469.768 130.355V160.073H491.336V156.383H474.012V146.787H488.913V143.177H474.012V134.047H490.739V130.355H469.768Z" fill="url(#paint12_linear)"/>
<path d="M509.273 130.355V160.073H513.517V151.031H520.864C521.499 151.031 522.137 150.989 522.731 150.948L529.141 160.073H533.771L526.721 150.097C530.881 148.612 533.259 145.299 533.259 140.715C533.259 134.263 528.589 130.355 520.864 130.355H509.273ZM513.517 134.047H520.736C526.169 134.047 529.016 136.469 529.016 140.715C529.016 144.961 526.169 147.421 520.736 147.421H513.517V134.047Z" fill="url(#paint13_linear)"/>
<path d="M551.201 160.073H555.444V130.355H551.201V160.073Z" fill="url(#paint14_linear)"/>
<path d="M572.992 145.215C572.992 153.917 579.7 160.415 588.831 160.415C597.876 160.415 604.584 153.96 604.584 145.215C604.584 136.469 597.876 130.015 588.831 130.015C579.7 130.015 572.992 136.512 572.992 145.215ZM577.24 145.215C577.24 138.636 582.165 133.793 588.831 133.793C595.411 133.793 600.336 138.636 600.336 145.215C600.336 151.793 595.411 156.636 588.831 156.636C582.165 156.636 577.24 151.793 577.24 145.215Z" fill="url(#paint15_linear)"/>
<path d="M622.143 130.355V160.073H626.388V151.031H633.733C634.369 151.031 635.007 150.989 635.601 150.948L642.011 160.073H646.64L639.591 150.097C643.753 148.612 646.129 145.299 646.129 140.715C646.129 134.263 641.459 130.355 633.733 130.355H622.143ZM626.388 134.047H633.605C639.039 134.047 641.885 136.469 641.885 140.715C641.885 144.961 639.039 147.421 633.605 147.421H626.388V134.047Z" fill="url(#paint16_linear)"/>
<path d="M662.076 138.507C662.076 149.547 680.076 144.961 680.076 152.221C680.076 154.811 677.869 156.805 672.729 156.805C668.908 156.805 665.128 155.361 662.921 153.365L661.355 156.676C663.731 158.883 668.185 160.415 672.729 160.415C680.585 160.415 684.236 156.507 684.236 151.964C684.236 141.053 666.236 145.597 666.236 138.337C666.236 135.748 668.403 133.624 673.451 133.624C676.084 133.624 679.013 134.388 681.601 136.043L683.005 132.649C680.545 130.948 676.935 130.015 673.451 130.015C665.64 130.015 662.076 133.923 662.076 138.507" fill="url(#paint17_linear)"/>
<path d="M387.923 1.56084L339.497 106.838H351.229L362.949 80.9915H404.775C409.307 80.9915 413.059 77.2955 413.142 72.7542L413.171 71.0342H367.465L392.65 15.4915L434.205 106.838H445.938L397.511 1.56084H387.923Z" fill="#414042"/>
<path d="M530.036 11.0628C542.917 11.0628 552.677 14.7562 560.749 22.6802L561.984 23.8922L568.941 16.4882L567.816 15.3308C558.604 5.85484 545.495 0.844173 529.904 0.844173C497.963 0.844173 474.777 23.2815 474.777 54.1962C474.777 84.6295 498.405 107.58 529.739 107.58C544.809 107.58 558.152 102.752 567.311 93.9895L567.832 93.4908V52.9655H557.351V88.8895C549.977 94.5668 541.033 97.3295 530.036 97.3295C504.676 97.3295 485.553 78.7868 485.553 54.1962C485.553 29.6042 504.676 11.0628 530.036 11.0628Z" fill="#414042"/>
<path d="M619.794 96.7483V58.391H675.386V48.4203H619.794V11.6176H678.97V1.57763H608.978V106.822H682.654V96.7483H619.794Z" fill="#414042"/>
<path d="M288.59 70.8259C288.353 70.7926 288.15 70.7246 287.914 70.5886C287.846 70.5566 287.778 70.5219 287.745 70.4886C288.014 70.6232 288.32 70.7246 288.59 70.8259Z" fill="white"/>
<path d="M283.183 21.7547C278.381 28.344 276.423 35.8814 275.781 39.1254C279.532 39.8347 283.115 40.9174 286.324 42.3694C285.987 39.8014 285.92 37.9427 285.92 37.84C285.885 36.692 286.799 35.7454 287.913 35.712C289.063 35.644 290.009 36.556 290.041 37.7054C290.041 37.74 290.415 41.5934 290.921 44.7694C301.568 51.3267 305.083 61.4987 305.555 69.0014C305.792 68.8334 305.995 68.528 306.131 68.1894C316.539 40.308 286.224 21.416 285.92 21.2134C285.584 21.0014 285.212 20.9 284.843 20.9C284.209 20.9 283.588 21.1987 283.183 21.7547" fill="url(#paint18_linear)"/>
<defs>
<linearGradient id="paint0_linear" x1="339.715" y1="6.82015" x2="245.133" y2="115.336" gradientUnits="userSpaceOnUse">
<stop stop-color="#D7DF23"/>
<stop offset="1" stop-color="#009444"/>
</linearGradient>
<linearGradient id="paint1_linear" x1="329.977" y1="-1.69546" x2="235.366" y2="106.854" gradientUnits="userSpaceOnUse">
<stop stop-color="#D7DF23"/>
<stop offset="1" stop-color="#009444"/>
</linearGradient>
<linearGradient id="paint2_linear" x1="14.637" y1="65.6759" x2="14.637" y2="209.084" gradientUnits="userSpaceOnUse">
<stop stop-color="#D7DF23"/>
<stop offset="1" stop-color="#009444"/>
</linearGradient>
<linearGradient id="paint3_linear" x1="58.1786" y1="65.6759" x2="58.1786" y2="209.084" gradientUnits="userSpaceOnUse">
<stop stop-color="#D7DF23"/>
<stop offset="1" stop-color="#009444"/>
</linearGradient>
<linearGradient id="paint4_linear" x1="97.9803" y1="65.6759" x2="97.9803" y2="209.084" gradientUnits="userSpaceOnUse">
<stop stop-color="#D7DF23"/>
<stop offset="1" stop-color="#009444"/>
</linearGradient>
<linearGradient id="paint5_linear" x1="135.557" y1="65.6759" x2="135.557" y2="209.084" gradientUnits="userSpaceOnUse">
<stop stop-color="#D7DF23"/>
<stop offset="1" stop-color="#009444"/>
</linearGradient>
<linearGradient id="paint6_linear" x1="165.655" y1="65.6759" x2="165.655" y2="209.084" gradientUnits="userSpaceOnUse">
<stop stop-color="#D7DF23"/>
<stop offset="1" stop-color="#009444"/>
</linearGradient>
<linearGradient id="paint7_linear" x1="200.527" y1="65.6759" x2="200.527" y2="209.084" gradientUnits="userSpaceOnUse">
<stop stop-color="#D7DF23"/>
<stop offset="1" stop-color="#009444"/>
</linearGradient>
<linearGradient id="paint8_linear" x1="244.533" y1="65.6759" x2="244.533" y2="209.084" gradientUnits="userSpaceOnUse">
<stop stop-color="#D7DF23"/>
<stop offset="1" stop-color="#009444"/>
</linearGradient>
<linearGradient id="paint9_linear" x1="366.16" y1="65.6759" x2="366.16" y2="209.084" gradientUnits="userSpaceOnUse">
<stop stop-color="#D7DF23"/>
<stop offset="1" stop-color="#009444"/>
</linearGradient>
<linearGradient id="paint10_linear" x1="401.031" y1="65.6759" x2="401.031" y2="209.084" gradientUnits="userSpaceOnUse">
<stop stop-color="#D7DF23"/>
<stop offset="1" stop-color="#009444"/>
</linearGradient>
<linearGradient id="paint11_linear" x1="441.792" y1="65.6759" x2="441.792" y2="209.084" gradientUnits="userSpaceOnUse">
<stop stop-color="#D7DF23"/>
<stop offset="1" stop-color="#009444"/>
</linearGradient>
<linearGradient id="paint12_linear" x1="480.552" y1="65.6759" x2="480.552" y2="209.084" gradientUnits="userSpaceOnUse">
<stop stop-color="#D7DF23"/>
<stop offset="1" stop-color="#009444"/>
</linearGradient>
<linearGradient id="paint13_linear" x1="521.522" y1="65.6759" x2="521.522" y2="209.084" gradientUnits="userSpaceOnUse">
<stop stop-color="#D7DF23"/>
<stop offset="1" stop-color="#009444"/>
</linearGradient>
<linearGradient id="paint14_linear" x1="553.323" y1="65.6759" x2="553.323" y2="209.084" gradientUnits="userSpaceOnUse">
<stop stop-color="#D7DF23"/>
<stop offset="1" stop-color="#009444"/>
</linearGradient>
<linearGradient id="paint15_linear" x1="588.788" y1="65.6759" x2="588.788" y2="209.084" gradientUnits="userSpaceOnUse">
<stop stop-color="#D7DF23"/>
<stop offset="1" stop-color="#009444"/>
</linearGradient>
<linearGradient id="paint16_linear" x1="634.391" y1="65.6759" x2="634.391" y2="209.084" gradientUnits="userSpaceOnUse">
<stop stop-color="#D7DF23"/>
<stop offset="1" stop-color="#009444"/>
</linearGradient>
<linearGradient id="paint17_linear" x1="672.795" y1="65.6759" x2="672.795" y2="209.084" gradientUnits="userSpaceOnUse">
<stop stop-color="#D7DF23"/>
<stop offset="1" stop-color="#009444"/>
</linearGradient>
<linearGradient id="paint18_linear" x1="329.934" y1="4.65438" x2="245.419" y2="101.467" gradientUnits="userSpaceOnUse">
<stop stop-color="#D7DF23"/>
<stop offset="1" stop-color="#009444"/>
</linearGradient>
</defs>
</svg>
