<svg width="63" height="61" viewBox="0 0 63 61" fill="none" xmlns="http://www.w3.org/2000/svg">
<path d="M12.3512 31.1014C11.3045 31.5414 10.8298 32.7573 11.2698 33.8067C11.3712 34.008 19.7191 52.732 45.3711 56.6507C48.3778 57.1253 51.6565 57.396 55.1712 57.396C56.8605 57.396 58.6192 57.3614 60.4098 57.2267C61.5578 57.1254 62.4031 56.144 62.3365 55.0293C62.2698 53.8813 61.1538 53.0347 60.1392 53.104C55.7792 53.4067 51.7925 53.3054 48.2085 52.9014H48.1752C48.1418 52.9014 48.0752 52.9014 48.0392 52.8667H47.8725C33.5072 51.2454 24.8911 44.8227 20.1245 39.5507C16.5085 35.9347 14.4805 32.6227 13.6032 31.0013C13.4405 30.9467 13.2725 30.9187 13.1032 30.9187C12.8512 30.92 12.5952 30.98 12.3512 31.1014" fill="url(#paint0_linear)"/>
<path d="M1.7738 22.9227C0.659132 23.0587 -0.119535 24.072 0.0151318 25.1867C0.117798 25.864 2.14582 41.2067 15.4952 52.5627C23.1658 59.1187 29.9925 60.5053 34.3525 60.5053C38.7458 60.5053 42.6658 59.1187 45.3711 56.6507C46.3165 55.8067 47.1285 54.8267 47.7712 53.7454C47.9058 53.508 47.9738 53.272 48.0058 53.0347C48.0058 53.0347 48.0058 52.968 48.0391 52.8667H47.8725C43.5458 52.2587 39.6925 51.2107 36.2805 49.9267C36.0098 49.824 35.7031 49.7227 35.4351 49.5894C28.6071 46.8507 23.6071 43.0654 20.1245 39.5507C16.5085 35.9347 14.4805 32.6227 13.6031 31.0014C13.2298 30.324 13.0618 29.9534 13.0271 29.9187C12.5885 28.8707 13.0952 27.6547 14.1098 27.2147C15.1578 26.776 16.3738 27.248 16.8472 28.2974C17.0832 28.8374 20.4965 36.3414 29.8245 42.2547C29.1152 39.3147 29.5538 36.4747 30.2312 34.7174C30.6352 33.6707 31.8178 33.1293 32.8658 33.5347C33.9471 33.9413 34.4885 35.124 34.0832 36.1707C33.9818 36.4747 33.5752 37.692 33.5752 39.2813C33.5752 41.3747 34.3205 44.1467 37.5631 46.0734C40.6405 47.2574 44.1525 48.2027 48.1098 48.744C47.8032 42.796 45.3032 32.1827 32.4952 26.336C26.4525 23.5774 19.2898 22.1734 11.6392 22.1734C8.42182 22.1734 5.11647 22.4227 1.7738 22.9227" fill="url(#paint1_linear)"/>
<path d="M30.8725 0.854688C26.0711 7.44402 24.1125 14.9813 23.4711 18.2253C27.2218 18.9347 30.8045 20.0174 34.0138 21.4694C33.6765 18.9014 33.6098 17.0427 33.6098 16.94C33.5751 15.792 34.4885 14.8453 35.6031 14.812C36.7525 14.744 37.6991 15.656 37.7311 16.8053C37.7311 16.84 38.1045 20.6933 38.6111 23.8693C49.2578 30.4267 52.7724 40.5987 53.2444 48.1013C53.4818 47.9333 53.6845 47.628 53.8205 47.2893C64.2285 19.408 33.9138 0.516014 33.6098 0.313347C33.2738 0.101347 32.9018 -7.30546e-06 32.5324 -7.30546e-06C31.8991 -7.30546e-06 31.2778 0.298688 30.8725 0.854688" fill="url(#paint2_linear)"/>
<defs>
<linearGradient id="paint0_linear" x1="87.4051" y1="-14.0799" x2="-7.17683" y2="94.4361" gradientUnits="userSpaceOnUse">
<stop stop-color="#D7DF23"/>
<stop offset="1" stop-color="#009444"/>
</linearGradient>
<linearGradient id="paint1_linear" x1="77.6668" y1="-22.5955" x2="-16.9444" y2="85.954" gradientUnits="userSpaceOnUse">
<stop stop-color="#D7DF23"/>
<stop offset="1" stop-color="#009444"/>
</linearGradient>
<linearGradient id="paint2_linear" x1="77.6242" y1="-16.2456" x2="-6.8908" y2="80.5671" gradientUnits="userSpaceOnUse">
<stop stop-color="#D7DF23"/>
<stop offset="1" stop-color="#009444"/>
</linearGradient>
</defs>
</svg>
