<?xml version="1.0" encoding="utf-8"?>
<!-- Generator: Adobe Illustrator 23.0.2, SVG Export Plug-In . SVG Version: 6.00 Build 0)  -->
<svg version="1.1" id="Layer_1" xmlns="http://www.w3.org/2000/svg" xmlns:xlink="http://www.w3.org/1999/xlink" x="0px" y="0px"
	 width="277.59px" height="344.13px" viewBox="0 0 277.59 344.13" style="enable-background:new 0 0 277.59 344.13;"
	 xml:space="preserve">
<style type="text/css">
	.st0{fill:#F8B841;}
	.st1{fill:#F8B841;}
</style>
<g>
	<g id="XMLID_38_">
		<path id="XMLID_1_" class="st0" d="M72.51,88.53l-1.25-39.52c-0.51-15.99-13.33-28.84-29.32-29.38l0,0l-0.03,101.74
			c0,13.66,10.82,0.44,24.47,0.9L72.51,88.53z"/>
		<path id="XMLID_150_" class="st0" d="M182.04,12.53c-16.82-16.26-43.56-16.03-60.1,0.51L0,134.98v209.15h277.56
			c-3.06-7.18-9.82-20.24-23.62-31.34c-20.87-16.8-43.85-17.84-51.31-17.87c-49.77,0-99.55,0-149.32,0l0.58-130.17L194.28,24.37
			L182.04,12.53z"/>
		<path id="XMLID_92_" class="st1" d="M88,46.98c28.31-15.83,69.06,12.13,69.06,12.13l50.32,44.13
			c20.36,17.85,51.07,16.85,70.22-2.3l0,0l-95.58-89.38c-16.88-15.79-43.25-15.35-59.59,1L88,46.98z"/>
	</g>
	<path class="st0" d="M152.43,195.03h-45.62c-1.65,0-3-1.35-3-3v-41.55c0-1.65,1.35-3,3-3h45.62c1.65,0,3,1.35,3,3v41.55
		C155.43,193.68,154.08,195.03,152.43,195.03z"/>
	<path class="st1" d="M210.09,195.03h-45.62c-1.65,0-3-1.35-3-3v-41.55c0-1.65,1.35-3,3-3h45.62c1.65,0,3,1.35,3,3v41.55
		C213.09,193.68,211.74,195.03,210.09,195.03z"/>
	<path class="st0" d="M152.43,248.24h-45.62c-1.65,0-3-1.35-3-3V203.7c0-1.65,1.35-3,3-3h45.62c1.65,0,3,1.35,3,3v41.55
		C155.43,246.89,154.08,248.24,152.43,248.24z"/>
	<path class="st1" d="M210.09,248.24h-45.62c-1.65,0-3-1.35-3-3V203.7c0-1.65,1.35-3,3-3h45.62c1.65,0,3,1.35,3,3v41.55
		C213.09,246.89,211.74,248.24,210.09,248.24z"/>
</g>
</svg>
