<?xml version="1.0" encoding="UTF-8" standalone="no"?>
<svg
   xmlns:dc="http://purl.org/dc/elements/1.1/"
   xmlns:cc="http://creativecommons.org/ns#"
   xmlns:rdf="http://www.w3.org/1999/02/22-rdf-syntax-ns#"
   xmlns:svg="http://www.w3.org/2000/svg"
   xmlns="http://www.w3.org/2000/svg"
   height="407.85406"
   width="934.87"
   xml:space="preserve"
   viewBox="0 0 934.87 407.85406"
   y="0px"
   x="0px"
   id="Layer_1"
   version="1.1"
   fill="none">
<g
   transform="translate(-492.39,-336.12592)"
   id="g40"
   fill="#F9B930">
	<path
   id="path2"
   d="m 492.39,700.61 c 0,-0.63 0.56,-1.19 1.19,-1.19 h 7.47 c 0.69,0 1.19,0.56 1.19,1.19 v 15.81 h 17.94 v -15.81 c 0,-0.63 0.5,-1.19 1.19,-1.19 h 7.47 c 0.63,0 1.19,0.56 1.19,1.19 v 41.53 c 0,0.63 -0.56,1.19 -1.19,1.19 h -7.47 c -0.69,0 -1.19,-0.56 -1.19,-1.19 v -16.5 h -17.94 v 16.5 c 0,0.63 -0.5,1.19 -1.19,1.19 h -7.47 c -0.63,0 -1.19,-0.56 -1.19,-1.19 z" />
	<path
   id="path4"
   d="m 542.39,700.61 c 0,-0.63 0.5,-1.19 1.19,-1.19 h 25.98 c 0.69,0 1.19,0.56 1.19,1.19 v 6.84 c 0,0.63 -0.5,1.19 -1.19,1.19 h -17.38 v 7.78 h 14.31 c 0.63,0 1.19,0.56 1.19,1.19 v 6.84 c 0,0.69 -0.56,1.19 -1.19,1.19 h -14.31 v 8.47 h 17.38 c 0.69,0 1.19,0.56 1.19,1.19 v 6.84 c 0,0.63 -0.5,1.19 -1.19,1.19 h -25.98 c -0.69,0 -1.19,-0.56 -1.19,-1.19 z" />
	<path
   id="path6"
   d="m 575.09,741.71 19.64,-42.22 c 0.19,-0.38 0.63,-0.69 1.07,-0.69 h 0.63 c 0.44,0 0.88,0.31 1.07,0.69 l 19.64,42.22 c 0.38,0.82 -0.13,1.63 -1.07,1.63 h -6.96 c -1.13,0 -1.63,-0.38 -2.2,-1.57 l -2.26,-4.96 h -17.07 l -2.26,5.02 c -0.31,0.75 -1,1.51 -2.26,1.51 h -6.9 c -0.95,0 -1.45,-0.82 -1.07,-1.63 z m 25.78,-13.43 -4.77,-10.35 h -0.06 l -4.71,10.35 z" />
	<path
   id="path8"
   d="m 627.23,708.64 h -8.97 c -0.69,0 -1.19,-0.56 -1.19,-1.19 v -6.84 c 0,-0.63 0.5,-1.19 1.19,-1.19 h 27.86 c 0.69,0 1.19,0.56 1.19,1.19 v 6.84 c 0,0.63 -0.5,1.19 -1.19,1.19 h -8.97 v 33.5 c 0,0.63 -0.56,1.19 -1.19,1.19 h -7.53 c -0.63,0 -1.19,-0.56 -1.19,-1.19 v -33.5 z" />
	<path
   id="path10"
   d="m 655.15,700.61 c 0,-0.63 0.56,-1.19 1.19,-1.19 h 7.53 c 0.63,0 1.19,0.56 1.19,1.19 v 41.53 c 0,0.63 -0.56,1.19 -1.19,1.19 h -7.53 c -0.63,0 -1.19,-0.56 -1.19,-1.19 z" />
	<path
   id="path12"
   d="m 677.36,699.92 c 0,-0.63 0.56,-1.13 1.19,-1.13 h 1.57 l 25.03,24.09 h 0.06 v -22.27 c 0,-0.63 0.5,-1.19 1.19,-1.19 h 7.53 c 0.63,0 1.19,0.56 1.19,1.19 v 42.22 c 0,0.63 -0.56,1.13 -1.19,1.13 h -1 c -0.19,0 -0.69,-0.19 -0.82,-0.31 l -24.78,-24.91 h -0.06 v 23.4 c 0,0.63 -0.5,1.19 -1.19,1.19 h -7.47 c -0.63,0 -1.19,-0.56 -1.19,-1.19 z" />
	<path
   id="path14"
   d="m 746.88,698.86 c 5.27,0 11.04,2.2 15.31,5.9 0.56,0.44 0.63,1.19 0.12,1.69 l -4.96,5.27 c -0.5,0.44 -1.19,0.44 -1.69,0.06 -2.38,-2.2 -5.14,-3.01 -8.22,-3.01 -6.84,0 -12.36,5.77 -12.36,12.67 0,6.84 5.58,12.48 12.42,12.48 1.82,0 3.7,-0.25 5.58,-1 v -3.64 h -3.95 c -0.69,0 -1.19,-0.5 -1.19,-1.13 v -6.21 c 0,-0.69 0.5,-1.19 1.19,-1.19 h 12.61 c 0.63,0 1.13,0.56 1.13,1.19 l 0.06,16.88 c 0,0.31 -0.25,0.82 -0.5,1 0,0 -6.46,4.08 -15.56,4.08 -12.48,0 -22.52,-9.91 -22.52,-22.46 0,-12.55 10.05,-22.58 22.53,-22.58 z" />
	<path
   id="path16"
   d="m 796.14,719.43 v -0.19 l -1.25,-1.32 c -2.51,-2.64 -4.14,-5.33 -4.14,-8.97 0,-4.77 4.14,-10.16 12.17,-10.16 7.15,0 12.55,4.64 12.55,10.48 0,6.9 -6.84,10.6 -6.84,11.11 l 5.65,5.77 c 0.82,-1.32 1.63,-3.33 2.07,-4.83 0.38,-1.32 0.75,-2.32 2.45,-1.69 l 4.58,1.63 c 1.76,0.63 1.07,2.13 0.82,2.89 -1.51,4.39 -3.95,7.72 -3.95,7.84 l 5.33,4.96 c 0.82,0.75 1.44,1.32 -0.13,2.89 l -3.51,3.58 c -0.75,0.69 -1.82,0.82 -2.82,-0.19 l -4.08,-4.08 c 0,0 -4.27,4.83 -13.68,4.83 -8.03,0 -13.8,-5.39 -13.8,-11.92 -0.01,-9.05 8.58,-12.63 8.58,-12.63 z m 6.28,16.7 c 4.89,0 6.78,-3.2 6.78,-3.2 l -8.22,-8.72 c 0,0 -4.45,1.5 -4.45,6.59 -0.01,3 2.56,5.33 5.89,5.33 z m 5.02,-26.29 c 0,-2.13 -1.95,-4.02 -4.64,-4.02 -2.32,0 -3.7,1.44 -3.7,3.07 0,1.88 1.25,3.07 2.89,4.89 l 1.38,1.38 c -0.01,0.01 4.07,-1.81 4.07,-5.32 z" />
	<path
   id="path18"
   d="m 849.41,700.61 c 0,-0.63 0.5,-1.19 1.19,-1.19 h 15.12 c 7.72,0 14.05,6.27 14.05,13.87 0,7.78 -6.34,14.12 -13.99,14.12 h -6.59 v 14.74 c 0,0.63 -0.56,1.19 -1.19,1.19 h -7.4 c -0.69,0 -1.19,-0.56 -1.19,-1.19 z m 15.75,17.63 c 2.7,0 4.96,-2.13 4.96,-4.96 0,-2.63 -2.26,-4.64 -4.96,-4.64 h -5.96 v 9.6 z" />
	<path
   id="path20"
   d="m 887.75,700.61 c 0,-0.63 0.5,-1.19 1.19,-1.19 h 7.47 c 0.63,0 1.19,0.56 1.19,1.19 v 33.5 h 14.93 c 0.69,0 1.19,0.56 1.19,1.19 v 6.84 c 0,0.63 -0.5,1.19 -1.19,1.19 h -23.59 c -0.69,0 -1.19,-0.56 -1.19,-1.19 z" />
	<path
   id="path22"
   d="m 920.26,700.61 c 0,-0.63 0.56,-1.19 1.19,-1.19 h 7.72 c 0.69,0 1.19,0.56 1.19,1.19 v 25.41 c 0,4.39 3.26,7.9 7.72,7.9 4.52,0 7.84,-3.51 7.84,-7.9 v -25.41 c 0,-0.63 0.5,-1.19 1.19,-1.19 h 7.72 c 0.63,0 1.19,0.56 1.19,1.19 v 25.91 c 0,9.54 -8.03,17.44 -17.94,17.44 -9.85,0 -17.82,-7.91 -17.82,-17.44 z" />
	<path
   id="path24"
   d="m 972.02,699.8 c 0.06,-0.56 0.63,-1 1.13,-1 h 1 c 0.31,0 0.88,0.25 1.07,0.63 l 14.56,27.1 h 0.12 l 14.56,-27.1 c 0.19,-0.38 0.75,-0.63 1.07,-0.63 h 1 c 0.5,0 1.07,0.44 1.13,1 l 7.09,42.16 c 0.12,0.82 -0.44,1.38 -1.19,1.38 h -7.4 c -0.56,0 -1.13,-0.5 -1.19,-1 l -2.82,-19.39 h -0.13 l -10.54,20.33 c -0.19,0.38 -0.75,0.69 -1.07,0.69 h -1.13 c -0.38,0 -0.88,-0.31 -1.07,-0.69 l -10.6,-20.33 h -0.12 l -2.76,19.39 c -0.06,0.5 -0.56,1 -1.19,1 h -7.4 c -0.75,0 -1.32,-0.56 -1.19,-1.38 z" />
	<path
   id="path26"
   d="m 1024.35,700.61 c 0,-0.63 0.5,-1.19 1.19,-1.19 h 14.62 c 7.4,0 13.49,5.08 13.49,11.67 0,4.83 -4.33,8.34 -7.28,9.91 3.32,1.38 8.41,4.46 8.41,10.23 0,7.03 -6.21,12.11 -13.68,12.11 h -15.56 c -0.69,0 -1.19,-0.56 -1.19,-1.19 z m 14.68,16.63 c 2.38,0 4.39,-2.01 4.39,-4.52 0,-2.51 -2.01,-4.27 -4.39,-4.27 h -4.89 v 8.78 h 4.89 z m 0.82,17.13 c 2.45,0 4.52,-2.01 4.52,-4.58 0,-2.51 -2.7,-4.39 -5.14,-4.39 h -5.08 v 8.97 z" />
	<path
   id="path28"
   d="m 1064.32,700.61 c 0,-0.63 0.56,-1.19 1.19,-1.19 h 7.53 c 0.63,0 1.19,0.56 1.19,1.19 v 41.53 c 0,0.63 -0.56,1.19 -1.19,1.19 h -7.53 c -0.63,0 -1.19,-0.56 -1.19,-1.19 z" />
	<path
   id="path30"
   d="m 1086.53,699.92 c 0,-0.63 0.56,-1.13 1.19,-1.13 h 1.57 l 25.03,24.09 h 0.06 v -22.27 c 0,-0.63 0.5,-1.19 1.19,-1.19 h 7.53 c 0.63,0 1.19,0.56 1.19,1.19 v 42.22 c 0,0.63 -0.56,1.13 -1.19,1.13 h -1 c -0.19,0 -0.69,-0.19 -0.82,-0.31 l -24.78,-24.91 h -0.06 v 23.4 c 0,0.63 -0.5,1.19 -1.19,1.19 h -7.47 c -0.63,0 -1.19,-0.56 -1.19,-1.19 z" />
	<path
   id="path32"
   d="m 1156.06,698.86 c 5.27,0 11.04,2.2 15.31,5.9 0.56,0.44 0.63,1.19 0.12,1.69 l -4.96,5.27 c -0.5,0.44 -1.19,0.44 -1.69,0.06 -2.38,-2.2 -5.14,-3.01 -8.22,-3.01 -6.84,0 -12.36,5.77 -12.36,12.67 0,6.84 5.58,12.48 12.42,12.48 1.82,0 3.7,-0.25 5.58,-1 v -3.64 h -3.95 c -0.69,0 -1.19,-0.5 -1.19,-1.13 v -6.21 c 0,-0.69 0.5,-1.19 1.19,-1.19 h 12.61 c 0.63,0 1.13,0.56 1.13,1.19 l 0.06,16.88 c 0,0.31 -0.25,0.82 -0.5,1 0,0 -6.46,4.08 -15.56,4.08 -12.48,0 -22.52,-9.91 -22.52,-22.46 0,-12.55 10.04,-22.58 22.53,-22.58 z" />
	<path
   id="path34"
   d="m 1197.72,700.61 c 0,-0.63 0.5,-1.19 1.19,-1.19 h 7.47 c 0.63,0 1.19,0.56 1.19,1.19 v 33.5 h 14.93 c 0.69,0 1.19,0.56 1.19,1.19 v 6.84 c 0,0.63 -0.5,1.19 -1.19,1.19 h -23.59 c -0.69,0 -1.19,-0.56 -1.19,-1.19 z" />
	<path
   id="path36"
   d="m 1234.62,708.64 h -8.97 c -0.69,0 -1.19,-0.56 -1.19,-1.19 v -6.84 c 0,-0.63 0.5,-1.19 1.19,-1.19 h 27.86 c 0.69,0 1.19,0.56 1.19,1.19 v 6.84 c 0,0.63 -0.5,1.19 -1.19,1.19 h -8.97 v 33.5 c 0,0.63 -0.56,1.19 -1.19,1.19 h -7.53 c -0.63,0 -1.19,-0.56 -1.19,-1.19 v -33.5 z" />
	<path
   id="path38"
   d="m 1262.54,700.61 c 0,-0.63 0.5,-1.19 1.13,-1.19 h 15.31 c 12.11,0 22.02,9.85 22.02,21.9 0,12.17 -9.91,22.02 -22.02,22.02 h -15.31 c -0.63,0 -1.13,-0.56 -1.13,-1.19 z m 15.81,33.44 c 7.09,0 12.23,-5.58 12.23,-12.74 0,-7.09 -5.14,-12.67 -12.23,-12.67 h -6.02 v 25.41 z" />
</g>
<g
   transform="translate(-492.39,-336.12592)"
   id="g54"
   fill="#F9B930">
	<g
   id="XMLID_38_">
		<path
   d="m 559.29,414.29 -1.1,-34.89 c -0.45,-14.12 -11.77,-25.46 -25.88,-25.94 v 0 l -0.02,89.81 c 0,12.06 9.55,0.38 21.6,0.79 z"
   class="st0"
   id="XMLID_1_" />
		<path
   d="m 655.98,347.2 c -14.85,-14.35 -38.46,-14.15 -53.06,0.45 L 495.28,455.28 V 623.2 c 20.62,0.44 23.58,0.12 47.06,0 l 0.51,-141.63 123.93,-123.93 z"
   class="st0"
   id="XMLID_150_" />
		<path
   d="m 572.96,377.6 c 24.99,-13.97 60.96,10.71 60.96,10.71 l 44.42,38.96 c 17.97,15.76 45.09,14.87 61.99,-2.03 v 0 l -84.37,-78.91 c -14.9,-13.94 -38.18,-13.55 -52.61,0.88 z"
   class="st1"
   id="XMLID_92_" />
	</g>
	<path
   id="path46"
   d="m 629.78,510.47 h -30.75 c -1.65,0 -3,-1.35 -3,-3 v -27.85 c 0,-1.65 1.35,-3 3,-3 h 30.75 c 1.65,0 3,1.35 3,3 v 27.85 c 0,1.65 -1.35,3 -3,3 z"
   class="st0" />
	<path
   id="path48"
   d="m 670.82,510.47 h -30.75 c -1.65,0 -3,-1.35 -3,-3 v -27.85 c 0,-1.65 1.35,-3 3,-3 h 30.75 c 1.65,0 3,1.35 3,3 v 27.85 c 0,1.65 -1.35,3 -3,3 z"
   class="st1" />
	<path
   id="path50"
   d="m 629.78,548.35 h -30.75 c -1.65,0 -3,-1.35 -3,-3 V 517.5 c 0,-1.65 1.35,-3 3,-3 h 30.75 c 1.65,0 3,1.35 3,3 v 27.85 c 0,1.65 -1.35,3 -3,3 z"
   class="st0" />
	<path
   id="path52"
   d="m 670.82,548.35 h -30.75 c -1.65,0 -3,-1.35 -3,-3 V 517.5 c 0,-1.65 1.35,-3 3,-3 h 30.75 c 1.65,0 3,1.35 3,3 v 27.85 c 0,1.65 -1.35,3 -3,3 z"
   class="st1" />
</g>
<g
   transform="translate(-492.39,-336.12592)"
   id="g64"
   fill="#F9B930">
	<path
   id="path56"
   d="m 703.66,512.45 c 0,-8.98 1.71,-17.41 5.15,-25.28 3.43,-7.87 8.1,-14.76 14,-20.66 5.9,-5.9 12.79,-10.57 20.66,-14 7.87,-3.43 16.3,-5.15 25.28,-5.15 h 99.6 v 43.44 h -99.6 c -3.03,0 -5.85,0.56 -8.48,1.66 -2.63,1.11 -4.92,2.65 -6.89,4.62 -1.97,1.97 -3.51,4.26 -4.62,6.89 -1.11,2.63 -1.66,5.45 -1.66,8.48 0,3.03 0.55,5.88 1.66,8.55 1.11,2.67 2.65,4.99 4.62,6.96 1.97,1.97 4.26,3.51 6.89,4.62 2.62,1.11 5.45,1.66 8.48,1.66 h 43.44 c 8.98,0 17.43,1.69 25.35,5.07 7.92,3.38 14.83,8.02 20.74,13.93 5.91,5.91 10.54,12.82 13.93,20.74 3.38,7.92 5.07,16.37 5.07,25.35 0,8.98 -1.69,17.41 -5.07,25.28 -3.38,7.87 -8.02,14.76 -13.93,20.66 -5.9,5.9 -12.82,10.57 -20.74,14 -7.92,3.43 -16.37,5.15 -25.35,5.15 H 495.28 v -43.44 h 316.91 c 3.03,0 5.85,-0.55 8.48,-1.66 2.62,-1.11 4.92,-2.65 6.89,-4.62 1.97,-1.97 3.51,-4.26 4.62,-6.89 1.11,-2.62 1.66,-5.45 1.66,-8.48 0,-3.03 -0.56,-5.85 -1.66,-8.48 -1.11,-2.62 -2.65,-4.92 -4.62,-6.89 -1.97,-1.97 -4.26,-3.51 -6.89,-4.62 -2.63,-1.11 -5.45,-1.66 -8.48,-1.66 h -43.44 c -8.98,0 -17.41,-1.71 -25.28,-5.15 -7.87,-3.43 -14.76,-8.1 -20.66,-14 -5.9,-5.9 -10.57,-12.81 -14,-20.74 -3.43,-7.9 -5.15,-16.35 -5.15,-25.34 z"
   class="st0" />
	<path
   id="path58"
   d="M 948.9,664.42 H 907.58 V 502.31 h 9.99 l 13.62,15.74 c 6.66,-6.05 14.2,-10.72 22.63,-14 8.42,-3.28 17.23,-4.92 26.41,-4.92 9.89,0 19.22,1.89 28,5.68 8.78,3.78 16.45,8.98 23.01,15.59 6.56,6.61 11.73,14.33 15.51,23.16 3.78,8.83 5.68,18.24 5.68,28.23 v 92.63 h -41.32 v -92.63 c 0,-4.24 -0.81,-8.25 -2.42,-12.03 -1.62,-3.78 -3.84,-7.09 -6.66,-9.91 -2.83,-2.82 -6.11,-5.04 -9.84,-6.66 -3.73,-1.61 -7.72,-2.42 -11.96,-2.42 -4.34,0 -8.43,0.81 -12.26,2.42 -3.84,1.62 -7.17,3.84 -9.99,6.66 -2.83,2.83 -5.05,6.13 -6.66,9.91 -1.62,3.78 -2.42,7.8 -2.42,12.03 z"
   class="st0" />
	<path
   id="path60"
   d="m 1207.45,645.5 c -3.33,3.03 -6.89,5.88 -10.67,8.55 -3.78,2.67 -7.75,4.99 -11.88,6.96 -4.14,1.97 -8.4,3.53 -12.79,4.69 -4.39,1.16 -8.85,1.74 -13.4,1.74 -9.99,0 -19.37,-1.77 -28.15,-5.3 -8.78,-3.53 -16.47,-8.55 -23.08,-15.06 -6.61,-6.51 -11.81,-14.43 -15.59,-23.76 -3.78,-9.33 -5.68,-19.8 -5.68,-31.41 V 502.3 h 41.17 v 89.61 c 0,5.45 0.83,10.32 2.5,14.61 1.66,4.29 3.91,7.9 6.74,10.82 2.82,2.93 6.13,5.15 9.91,6.66 3.78,1.51 7.84,2.27 12.18,2.27 4.24,0 8.25,-0.98 12.03,-2.95 3.78,-1.97 7.09,-4.56 9.91,-7.8 2.82,-3.23 5.04,-6.89 6.66,-10.97 1.61,-4.09 2.42,-8.3 2.42,-12.64 V 502.3 h 41.32 v 162.11 h -9.99 z"
   class="st0" />
	<path
   id="path62"
   d="m 1427.26,643.99 c 0,11.4 -2.17,22.1 -6.51,32.09 -4.34,9.99 -10.27,18.72 -17.78,26.19 -7.52,7.47 -16.3,13.37 -26.34,17.71 -10.04,4.34 -20.76,6.51 -32.16,6.51 l -20.74,-0.3 v -41.32 l 20.43,0.3 c 6.46,0 11.96,-0.83 16.5,-2.5 4.54,-1.66 8.37,-3.94 11.5,-6.81 3.13,-2.88 5.62,-6.18 7.49,-9.91 1.87,-3.73 3.35,-7.67 4.47,-11.81 -1.62,2.63 -3.94,4.77 -6.96,6.43 -3.02,1.66 -6.38,3.03 -10.07,4.09 -3.68,1.06 -7.52,1.79 -11.5,2.19 -3.99,0.4 -7.7,0.61 -11.13,0.61 -11.4,0 -22.12,-1.97 -32.16,-5.9 -10.04,-3.94 -18.82,-9.56 -26.34,-16.88 -7.52,-7.32 -13.45,-16.27 -17.78,-26.87 -4.34,-10.6 -6.51,-22.55 -6.51,-35.87 0,-12.21 2.17,-23.56 6.51,-34.06 4.34,-10.49 10.27,-19.58 17.78,-27.24 7.52,-7.67 16.3,-13.67 26.34,-18.01 10.04,-4.34 20.76,-6.51 32.16,-6.51 5.25,0 10.44,0.66 15.59,1.97 5.15,1.31 10.14,3.13 14.98,5.45 4.84,2.32 9.46,5.05 13.85,8.17 4.39,3.13 8.5,6.51 12.34,10.14 l 16.04,-19.22 h 9.99 v 141.36 z m -41.62,-62.06 c 0,-5.65 -1.09,-11.13 -3.25,-16.42 -2.17,-5.3 -5.12,-9.99 -8.85,-14.08 -3.73,-4.09 -8.1,-7.36 -13.09,-9.84 -4.99,-2.47 -10.32,-3.71 -15.97,-3.71 -5.65,0 -10.97,0.96 -15.97,2.88 -4.99,1.92 -9.33,4.74 -13.02,8.48 -3.68,3.73 -6.58,8.35 -8.7,13.85 -2.12,5.5 -3.18,11.78 -3.18,18.84 0,6.76 1.06,12.84 3.18,18.24 2.12,5.4 5.02,10.02 8.7,13.85 3.68,3.84 8.02,6.79 13.02,8.85 4.99,2.07 10.32,3.1 15.97,3.1 5.65,0 10.97,-1.23 15.97,-3.71 4.99,-2.47 9.36,-5.75 13.09,-9.84 3.73,-4.09 6.68,-8.78 8.85,-14.08 2.16,-5.29 3.25,-10.76 3.25,-16.41 z"
   class="st0" />
</g>
</svg>